# xmcd
#
# Track frame offsets:
#	180
#	12340
#	25869
#	38314
#	49562
#	62927
#	75171
#	86917
#	99720
#	110509
#	123011
#	136214
#	148175
#	161824
#	174898
#	188189
#
# Disc length: 2678 seconds
#
# Revision: 1
# Processed by: cddbd v1.5.2PL0 Copyright (c) Steve Scherf et al.
# Submitted via: audiograbber 1.83.01
#
DISCID=c70a7410
DTITLE=Various Artist - Sabor Costeno (Vol. 3)
DYEAR=1996
DGENRE=Latina
TTITLE0=Pura Paja
TTITLE1=Cumbia Saramuya
TTITLE2=Pie Peluo
TTITLE3=La Vieron Llorar
TTITLE4=El Docto
TTITLE5=La Camisola
TTITLE6=El Conejo Cotilino
TTITLE7=Monteria
TTITLE8=Cumbia Sabrosa
TTITLE9=Vamonos Caminando
TTITLE10=El Pajaro Picon
TTITLE11=Se Va El Caiman
TTITLE12=Cumbia Banquena
TTITLE13=Avelina
TTITLE14=Zabaleta
TTITLE15=La Gorra
EXTD=
EXTT0=
EXTT1=
EXTT2=
EXTT3=
EXTT4=
EXTT5=
EXTT6=
EXTT7=
EXTT8=
EXTT9=
EXTT10=
EXTT11=
EXTT12=
EXTT13=
EXTT14=
EXTT15=
PLAYORDER=
